<mxfile host="app.diagrams.net" modified="2023-05-15T22:44:17.924Z" agent="Mozilla/5.0 (Windows NT 10.0; Win64; x64) AppleWebKit/537.36 (KHTML, like Gecko) Chrome/113.0.0.0 Safari/537.36" version="21.2.9" etag="_N7IDLblTiVGT7U_GDlw" type="github">
  <diagram name="Page-1" id="B7qEEb8cr0i3-mkee2ez">
    <mxGraphModel>
      <root>
        <mxCell id="0" />
        <mxCell id="1" parent="0" />
      </root>
    </mxGraphModel>
  </diagram>
</mxfile>
